<svg width="276" height="554" viewBox="0 0 276 554" fill="none" xmlns="http://www.w3.org/2000/svg">
<path d="M195.977 338.139C195.977 335.914 197.667 334.11 199.751 334.11C201.835 334.11 203.525 335.914 203.525 338.139C203.525 340.363 201.835 342.167 199.751 342.167C197.69 342.167 195.977 340.363 195.977 338.139Z" fill="url(#paint0_linear_3_366)"/>
<path d="M200.399 246.82H199.149V335.791H200.399V246.82Z" fill="url(#paint1_linear_3_366)"/>
<path d="M24.7729 228.581C24.7729 226.357 26.4632 224.552 28.5471 224.552C30.631 224.552 32.3213 226.357 32.3213 228.581C32.3213 230.805 30.631 232.609 28.5471 232.609C26.4632 232.609 24.7729 230.805 24.7729 228.581Z" fill="url(#paint2_linear_3_366)"/>
<path d="M29.1723 137.262H27.9219V226.258H29.1723V137.262Z" fill="url(#paint3_linear_3_366)"/>
<path d="M71.6838 133.901C71.6838 131.677 73.3741 129.873 75.458 129.873C77.5419 129.873 79.2322 131.677 79.2322 133.901C79.2322 136.125 77.5419 137.929 75.458 137.929C73.3741 137.929 71.6838 136.125 71.6838 133.901Z" fill="url(#paint4_linear_3_366)"/>
<path d="M76.1063 42.5822H74.856V131.553H76.1063V42.5822Z" fill="url(#paint5_linear_3_366)"/>
<path d="M109.379 154.34C109.379 152.115 111.07 150.311 113.153 150.311C115.237 150.311 116.928 152.115 116.928 154.34C116.928 156.564 115.237 158.368 113.153 158.368C111.093 158.393 109.379 156.589 109.379 154.34Z" fill="url(#paint6_linear_3_366)"/>
<path d="M113.802 63.0455H112.551V152.041H113.802V63.0455Z" fill="url(#paint7_linear_3_366)"/>
<path d="M170.878 384.082C170.878 381.858 172.568 380.054 174.652 380.054C176.736 380.054 178.426 381.858 178.426 384.082C178.426 386.307 176.736 388.111 174.652 388.111C172.568 388.111 170.878 386.307 170.878 384.082Z" fill="url(#paint8_linear_3_366)"/>
<path d="M175.3 292.764H174.05V381.735H175.3V292.764Z" fill="url(#paint9_linear_3_366)"/>
<path d="M229.296 124.954C229.296 122.73 230.986 120.926 233.07 120.926C235.154 120.926 236.844 122.73 236.844 124.954C236.844 127.179 235.154 128.983 233.07 128.983C230.986 128.983 229.296 127.179 229.296 124.954Z" fill="url(#paint10_linear_3_366)"/>
<path d="M233.695 33.6603H232.445V122.631H233.695V33.6603Z" fill="url(#paint11_linear_3_366)"/>
<path d="M125.124 121C125.124 118.776 126.815 116.972 128.898 116.972C130.982 116.972 132.673 118.776 132.673 121C132.673 123.224 130.982 125.029 128.898 125.029C126.815 125.029 125.124 123.224 125.124 121Z" fill="url(#paint12_linear_3_366)"/>
<path d="M129.547 74.1916H128.296V118.677H129.547V74.1916Z" fill="url(#paint13_linear_3_366)"/>
<path d="M267.478 344.663C267.478 342.439 269.168 340.635 271.252 340.635C273.336 340.635 275.026 342.439 275.026 344.663C275.026 346.888 273.336 348.692 271.252 348.692C269.191 348.692 267.478 346.888 267.478 344.663Z" fill="url(#paint14_linear_3_366)"/>
<path d="M271.9 297.83H270.65V342.315H271.9V297.83Z" fill="url(#paint15_linear_3_366)"/>
<path d="M-1.1369 33.8086C-1.1369 31.5843 0.553366 29.7802 2.63727 29.7802C4.72117 29.7802 6.41144 31.5843 6.41144 33.8086C6.41144 36.0329 4.72117 37.837 2.63727 37.837C0.576521 37.837 -1.1369 36.0329 -1.1369 33.8086Z" fill="url(#paint16_linear_3_366)"/>
<path d="M3.28556 -13H2.03522V31.4855H3.28556V-13Z" fill="url(#paint17_linear_3_366)"/>
<path d="M50.3354 108.94C50.3354 106.715 52.0257 104.911 54.1096 104.911C56.1935 104.911 57.8838 106.715 57.8838 108.94C57.8838 111.164 56.1935 112.968 54.1096 112.968C52.0257 112.968 50.3354 111.164 50.3354 108.94Z" fill="url(#paint18_linear_3_366)"/>
<path d="M54.758 62.1064H53.5076V106.592H54.758V62.1064Z" fill="url(#paint19_linear_3_366)"/>
<path d="M172.359 47.3026C172.359 45.0783 174.05 43.2742 176.134 43.2742C178.218 43.2742 179.908 45.0783 179.908 47.3026C179.908 49.5269 178.218 51.331 176.134 51.331C174.073 51.3557 172.359 49.5269 172.359 47.3026Z" fill="url(#paint20_linear_3_366)"/>
<path d="M176.782 0.493988H175.532V44.9795H176.782V0.493988Z" fill="url(#paint21_linear_3_366)"/>
<path d="M119.845 372.862C119.845 370.638 121.535 368.834 123.619 368.834C125.703 368.834 127.393 370.638 127.393 372.862C127.393 375.086 125.703 376.89 123.619 376.89C121.535 376.89 119.845 375.086 119.845 372.862Z" fill="url(#paint22_linear_3_366)"/>
<path d="M124.244 281.543H122.994V370.539H124.244V281.543Z" fill="url(#paint23_linear_3_366)"/>
<path d="M228.463 325.633C228.463 323.409 230.153 321.605 232.237 321.605C234.321 321.605 236.011 323.409 236.011 325.633C236.011 327.858 234.321 329.662 232.237 329.662C230.153 329.687 228.463 327.882 228.463 325.633Z" fill="url(#paint24_linear_3_366)"/>
<path d="M232.862 234.339H231.612V323.335H232.862V234.339Z" fill="url(#paint25_linear_3_366)"/>
<path d="M46.5613 549.815C46.5613 547.591 48.2516 545.787 50.3355 545.787C52.4194 545.787 54.1096 547.591 54.1096 549.815C54.1096 552.04 52.4194 553.844 50.3355 553.844C48.2516 553.869 46.5613 552.04 46.5613 549.815Z" fill="url(#paint26_linear_3_366)"/>
<path d="M50.9606 240.468H49.7103V547.492H50.9606V240.468Z" fill="url(#paint27_linear_3_366)"/>
<path d="M206.605 374.024C206.605 371.8 208.295 369.995 210.379 369.995C212.463 369.995 214.153 371.8 214.153 374.024C214.153 376.248 212.463 378.052 210.379 378.052C208.295 378.052 206.605 376.248 206.605 374.024Z" fill="url(#paint28_linear_3_366)"/>
<path d="M211.004 64.6766H209.754V371.701H211.004V64.6766Z" fill="url(#paint29_linear_3_366)"/>
<path d="M104.934 464.008C104.934 461.784 106.624 459.98 108.708 459.98C110.792 459.98 112.482 461.784 112.482 464.008C112.482 466.232 110.792 468.036 108.708 468.036C106.624 468.061 104.934 466.232 104.934 464.008Z" fill="url(#paint30_linear_3_366)"/>
<path d="M109.356 154.686H108.106V461.71H109.356V154.686Z" fill="url(#paint31_linear_3_366)"/>
<path d="M184.84 225.862C184.84 223.638 186.53 221.834 188.614 221.834C190.698 221.834 192.388 223.638 192.388 225.862C192.388 228.087 190.698 229.891 188.614 229.891C186.53 229.916 184.84 228.111 184.84 225.862Z" fill="url(#paint32_linear_3_366)"/>
<path d="M189.262 53.6788H188.012V223.539H189.262V53.6788Z" fill="url(#paint33_linear_3_366)"/>
<path d="M16.8773 316.316C16.8773 314.092 18.5675 312.288 20.6514 312.288C22.7353 312.288 24.4256 314.092 24.4256 316.316C24.4256 318.54 22.7353 320.345 20.6514 320.345C18.5675 320.345 16.8773 318.54 16.8773 316.316Z" fill="url(#paint34_linear_3_366)"/>
<path d="M21.2997 144.133H20.0494V313.993H21.2997V144.133Z" fill="url(#paint35_linear_3_366)"/>
<defs>
<linearGradient id="paint0_linear_3_366" x1="199.767" y1="315.457" x2="199.767" y2="245.437" gradientUnits="userSpaceOnUse">
<stop stop-color="#A4FFFF"/>
<stop offset="1" stop-color="#A4FFFF" stop-opacity="0"/>
</linearGradient>
<linearGradient id="paint1_linear_3_366" x1="199.77" y1="315.456" x2="199.77" y2="245.438" gradientUnits="userSpaceOnUse">
<stop stop-color="#A4FFFF"/>
<stop offset="1" stop-color="#A4FFFF" stop-opacity="0"/>
</linearGradient>
<linearGradient id="paint2_linear_3_366" x1="28.5469" y1="205.897" x2="28.5469" y2="135.856" gradientUnits="userSpaceOnUse">
<stop stop-color="#A4FFFF"/>
<stop offset="1" stop-color="#A4FFFF" stop-opacity="0"/>
</linearGradient>
<linearGradient id="paint3_linear_3_366" x1="28.5466" y1="205.905" x2="28.5466" y2="135.884" gradientUnits="userSpaceOnUse">
<stop stop-color="#A4FFFF"/>
<stop offset="1" stop-color="#A4FFFF" stop-opacity="0"/>
</linearGradient>
<linearGradient id="paint4_linear_3_366" x1="75.4731" y1="111.226" x2="75.4731" y2="41.2064" gradientUnits="userSpaceOnUse">
<stop stop-color="#A4FFFF"/>
<stop offset="1" stop-color="#A4FFFF" stop-opacity="0"/>
</linearGradient>
<linearGradient id="paint5_linear_3_366" x1="75.4728" y1="111.225" x2="75.4728" y2="41.2073" gradientUnits="userSpaceOnUse">
<stop stop-color="#A4FFFF"/>
<stop offset="1" stop-color="#A4FFFF" stop-opacity="0"/>
</linearGradient>
<linearGradient id="paint6_linear_3_366" x1="113.171" y1="131.676" x2="113.171" y2="61.6537" gradientUnits="userSpaceOnUse">
<stop stop-color="#A4FFFF"/>
<stop offset="1" stop-color="#A4FFFF" stop-opacity="0"/>
</linearGradient>
<linearGradient id="paint7_linear_3_366" x1="113.171" y1="131.676" x2="113.171" y2="61.6568" gradientUnits="userSpaceOnUse">
<stop stop-color="#A4FFFF"/>
<stop offset="1" stop-color="#A4FFFF" stop-opacity="0"/>
</linearGradient>
<linearGradient id="paint8_linear_3_366" x1="174.665" y1="361.411" x2="174.665" y2="291.41" gradientUnits="userSpaceOnUse">
<stop stop-color="#A4FFFF"/>
<stop offset="1" stop-color="#A4FFFF" stop-opacity="0"/>
</linearGradient>
<linearGradient id="paint9_linear_3_366" x1="174.666" y1="361.404" x2="174.666" y2="291.386" gradientUnits="userSpaceOnUse">
<stop stop-color="#A4FFFF"/>
<stop offset="1" stop-color="#A4FFFF" stop-opacity="0"/>
</linearGradient>
<linearGradient id="paint10_linear_3_366" x1="233.071" y1="102.282" x2="233.071" y2="32.2625" gradientUnits="userSpaceOnUse">
<stop stop-color="#A4FFFF"/>
<stop offset="1" stop-color="#A4FFFF" stop-opacity="0"/>
</linearGradient>
<linearGradient id="paint11_linear_3_366" x1="233.07" y1="102.281" x2="233.07" y2="32.263" gradientUnits="userSpaceOnUse">
<stop stop-color="#A4FFFF"/>
<stop offset="1" stop-color="#A4FFFF" stop-opacity="0"/>
</linearGradient>
<linearGradient id="paint12_linear_3_366" x1="128.909" y1="98.3314" x2="128.909" y2="28.3118" gradientUnits="userSpaceOnUse">
<stop stop-color="#A4FFFF"/>
<stop offset="1" stop-color="#A4FFFF" stop-opacity="0"/>
</linearGradient>
<linearGradient id="paint13_linear_3_366" x1="128.91" y1="108.507" x2="128.91" y2="73.4979" gradientUnits="userSpaceOnUse">
<stop stop-color="#A4FFFF"/>
<stop offset="1" stop-color="#A4FFFF" stop-opacity="0"/>
</linearGradient>
<linearGradient id="paint14_linear_3_366" x1="271.269" y1="321.981" x2="271.269" y2="251.961" gradientUnits="userSpaceOnUse">
<stop stop-color="#A4FFFF"/>
<stop offset="1" stop-color="#A4FFFF" stop-opacity="0"/>
</linearGradient>
<linearGradient id="paint15_linear_3_366" x1="271.269" y1="332.157" x2="271.269" y2="297.148" gradientUnits="userSpaceOnUse">
<stop stop-color="#A4FFFF"/>
<stop offset="1" stop-color="#A4FFFF" stop-opacity="0"/>
</linearGradient>
<linearGradient id="paint16_linear_3_366" x1="2.65626" y1="11.1391" x2="2.65626" y2="-58.8808" gradientUnits="userSpaceOnUse">
<stop stop-color="#A4FFFF"/>
<stop offset="1" stop-color="#A4FFFF" stop-opacity="0"/>
</linearGradient>
<linearGradient id="paint17_linear_3_366" x1="2.65529" y1="21.3154" x2="2.65529" y2="-13.6945" gradientUnits="userSpaceOnUse">
<stop stop-color="#A4FFFF"/>
<stop offset="1" stop-color="#A4FFFF" stop-opacity="0"/>
</linearGradient>
<linearGradient id="paint18_linear_3_366" x1="54.1251" y1="86.2508" x2="54.1251" y2="16.2096" gradientUnits="userSpaceOnUse">
<stop stop-color="#A4FFFF"/>
<stop offset="1" stop-color="#A4FFFF" stop-opacity="0"/>
</linearGradient>
<linearGradient id="paint19_linear_3_366" x1="54.1252" y1="96.4351" x2="54.1252" y2="61.4255" gradientUnits="userSpaceOnUse">
<stop stop-color="#A4FFFF"/>
<stop offset="1" stop-color="#A4FFFF" stop-opacity="0"/>
</linearGradient>
<linearGradient id="paint20_linear_3_366" x1="176.152" y1="24.6352" x2="176.152" y2="-45.3847" gradientUnits="userSpaceOnUse">
<stop stop-color="#A4FFFF"/>
<stop offset="1" stop-color="#A4FFFF" stop-opacity="0"/>
</linearGradient>
<linearGradient id="paint21_linear_3_366" x1="176.154" y1="34.8103" x2="176.154" y2="-0.195785" gradientUnits="userSpaceOnUse">
<stop stop-color="#A4FFFF"/>
<stop offset="1" stop-color="#A4FFFF" stop-opacity="0"/>
</linearGradient>
<linearGradient id="paint22_linear_3_366" x1="123.629" y1="350.188" x2="123.629" y2="280.168" gradientUnits="userSpaceOnUse">
<stop stop-color="#A4FFFF"/>
<stop offset="1" stop-color="#A4FFFF" stop-opacity="0"/>
</linearGradient>
<linearGradient id="paint23_linear_3_366" x1="123.628" y1="350.188" x2="123.628" y2="280.168" gradientUnits="userSpaceOnUse">
<stop stop-color="#A4FFFF"/>
<stop offset="1" stop-color="#A4FFFF" stop-opacity="0"/>
</linearGradient>
<linearGradient id="paint24_linear_3_366" x1="232.243" y1="302.964" x2="232.243" y2="232.923" gradientUnits="userSpaceOnUse">
<stop stop-color="#A4FFFF"/>
<stop offset="1" stop-color="#A4FFFF" stop-opacity="0"/>
</linearGradient>
<linearGradient id="paint25_linear_3_366" x1="232.244" y1="302.97" x2="232.244" y2="232.952" gradientUnits="userSpaceOnUse">
<stop stop-color="#A4FFFF"/>
<stop offset="1" stop-color="#A4FFFF" stop-opacity="0"/>
</linearGradient>
<linearGradient id="paint26_linear_3_366" x1="50.3433" y1="510.33" x2="50.3433" y2="385.631" gradientUnits="userSpaceOnUse">
<stop stop-color="#A4FFFF"/>
<stop offset="1" stop-color="#A4FFFF" stop-opacity="0"/>
</linearGradient>
<linearGradient id="paint27_linear_3_366" x1="50.3445" y1="479.128" x2="50.3445" y2="249.739" gradientUnits="userSpaceOnUse">
<stop stop-color="#A4FFFF"/>
<stop offset="1" stop-color="#A4FFFF" stop-opacity="0"/>
</linearGradient>
<linearGradient id="paint28_linear_3_366" x1="210.377" y1="334.534" x2="210.377" y2="209.835" gradientUnits="userSpaceOnUse">
<stop stop-color="#A4FFFF"/>
<stop offset="1" stop-color="#A4FFFF" stop-opacity="0"/>
</linearGradient>
<linearGradient id="paint29_linear_3_366" x1="210.378" y1="303.331" x2="210.378" y2="73.9432" gradientUnits="userSpaceOnUse">
<stop stop-color="#A4FFFF"/>
<stop offset="1" stop-color="#A4FFFF" stop-opacity="0"/>
</linearGradient>
<linearGradient id="paint30_linear_3_366" x1="108.721" y1="424.523" x2="108.721" y2="299.825" gradientUnits="userSpaceOnUse">
<stop stop-color="#A4FFFF"/>
<stop offset="1" stop-color="#A4FFFF" stop-opacity="0"/>
</linearGradient>
<linearGradient id="paint31_linear_3_366" x1="108.722" y1="393.319" x2="108.722" y2="163.932" gradientUnits="userSpaceOnUse">
<stop stop-color="#A4FFFF"/>
<stop offset="1" stop-color="#A4FFFF" stop-opacity="0"/>
</linearGradient>
<linearGradient id="paint32_linear_3_366" x1="188.624" y1="186.369" x2="188.624" y2="61.6321" gradientUnits="userSpaceOnUse">
<stop stop-color="#A4FFFF"/>
<stop offset="1" stop-color="#A4FFFF" stop-opacity="0"/>
</linearGradient>
<linearGradient id="paint33_linear_3_366" x1="188.624" y1="185.724" x2="188.624" y2="58.8085" gradientUnits="userSpaceOnUse">
<stop stop-color="#A4FFFF"/>
<stop offset="1" stop-color="#A4FFFF" stop-opacity="0"/>
</linearGradient>
<linearGradient id="paint34_linear_3_366" x1="20.6632" y1="276.828" x2="20.6632" y2="152.167" gradientUnits="userSpaceOnUse">
<stop stop-color="#A4FFFF"/>
<stop offset="1" stop-color="#A4FFFF" stop-opacity="0"/>
</linearGradient>
<linearGradient id="paint35_linear_3_366" x1="20.6632" y1="276.159" x2="20.6632" y2="149.245" gradientUnits="userSpaceOnUse">
<stop stop-color="#A4FFFF"/>
<stop offset="1" stop-color="#A4FFFF" stop-opacity="0"/>
</linearGradient>
</defs>
</svg>
