<svg width="363" height="538" viewBox="0 0 363 538" fill="none" xmlns="http://www.w3.org/2000/svg">
<path d="M179.771 380.722C179.771 378.497 181.462 376.693 183.545 376.693C185.629 376.693 187.32 378.497 187.32 380.722C187.32 382.946 185.629 384.75 183.545 384.75C181.462 384.775 179.771 382.946 179.771 380.722Z" fill="url(#paint0_linear_3_364)"/>
<path d="M184.171 316.366H182.92V378.423H184.171V316.366Z" fill="url(#paint1_linear_3_364)"/>
<path d="M82.4069 290.614C82.4069 288.389 84.0971 286.585 86.181 286.585C88.2649 286.585 89.9551 288.389 89.9551 290.614C89.9551 292.838 88.2649 294.642 86.181 294.642C84.0971 294.642 82.4069 292.838 82.4069 290.614Z" fill="url(#paint2_linear_3_364)"/>
<path d="M86.8061 127.673H85.5558V288.291H86.8061V127.673Z" fill="url(#paint3_linear_3_364)"/>
<path d="M355.352 315.155C355.352 312.931 357.042 311.127 359.126 311.127C361.21 311.127 362.9 312.931 362.9 315.155C362.9 317.379 361.21 319.183 359.126 319.183C357.042 319.183 355.352 317.379 355.352 315.155Z" fill="url(#paint4_linear_3_364)"/>
<path d="M359.751 152.215H358.5V312.832H359.751V152.215Z" fill="url(#paint5_linear_3_364)"/>
<path d="M39.3628 151.745C39.3628 149.521 41.053 147.717 43.137 147.717C45.2209 147.717 46.9113 149.521 46.9113 151.745C46.9113 153.969 45.2209 155.773 43.137 155.773C41.0762 155.798 39.3628 153.994 39.3628 151.745Z" fill="url(#paint6_linear_3_364)"/>
<path d="M43.7852 60.4508H42.5349V149.446H43.7852V60.4508Z" fill="url(#paint7_linear_3_364)"/>
<path d="M156.223 221.884C156.223 219.659 157.913 217.855 159.997 217.855C162.081 217.855 163.772 219.659 163.772 221.884C163.772 224.108 162.081 225.912 159.997 225.912C157.913 225.937 156.223 224.108 156.223 221.884Z" fill="url(#paint8_linear_3_364)"/>
<path d="M160.622 130.59H159.372V219.585H160.622V130.59Z" fill="url(#paint9_linear_3_364)"/>
<path d="M308.765 191.806C308.765 189.582 310.455 187.778 312.539 187.778C314.623 187.778 316.313 189.582 316.313 191.806C316.313 194.031 314.623 195.835 312.539 195.835C310.455 195.86 308.765 194.055 308.765 191.806Z" fill="url(#paint10_linear_3_364)"/>
<path d="M313.187 100.512H311.937V189.483H313.187V100.512Z" fill="url(#paint11_linear_3_364)"/>
<path d="M275.7 228.902C275.7 226.678 277.39 224.874 279.474 224.874C281.558 224.874 283.248 226.678 283.248 228.902C283.248 231.127 281.558 232.931 279.474 232.931C277.39 232.931 275.7 231.127 275.7 228.902Z" fill="url(#paint12_linear_3_364)"/>
<path d="M280.123 137.608H278.872V226.604H280.123V137.608Z" fill="url(#paint13_linear_3_364)"/>
<path d="M145.132 296.273C145.132 294.049 146.823 292.245 148.906 292.245C150.99 292.245 152.68 294.049 152.68 296.273C152.68 298.498 150.99 300.302 148.906 300.302C146.823 300.326 145.132 298.498 145.132 296.273Z" fill="url(#paint14_linear_3_364)"/>
<path d="M149.555 127.055H148.305V293.95H149.555V127.055Z" fill="url(#paint15_linear_3_364)"/>
<path d="M167.106 265.677C167.106 263.453 168.796 261.649 170.88 261.649C172.964 261.649 174.654 263.453 174.654 265.677C174.654 267.901 172.964 269.706 170.88 269.706C168.796 269.706 167.106 267.901 167.106 265.677Z" fill="url(#paint16_linear_3_364)"/>
<path d="M171.528 130.12H170.278V263.354H171.528V130.12Z" fill="url(#paint17_linear_3_364)"/>
<path d="M113.249 442.655C113.249 440.431 114.939 438.627 117.023 438.627C119.107 438.627 120.797 440.431 120.797 442.655C120.797 444.879 119.107 446.684 117.023 446.684C114.962 446.684 113.249 444.879 113.249 442.655Z" fill="url(#paint18_linear_3_364)"/>
<path d="M117.671 133.308H116.421V440.332H117.671V133.308Z" fill="url(#paint19_linear_3_364)"/>
<path d="M223.348 309.347C223.348 307.123 225.038 305.319 227.122 305.319C229.206 305.319 230.896 307.123 230.896 309.347C230.896 311.571 229.206 313.375 227.122 313.375C225.038 313.375 223.348 311.571 223.348 309.347Z" fill="url(#paint20_linear_3_364)"/>
<path d="M227.77 0H226.52V307.024H227.77V0Z" fill="url(#paint21_linear_3_364)"/>
<path d="M280.655 326.523C280.655 324.299 282.346 322.495 284.429 322.495C286.513 322.495 288.204 324.299 288.204 326.523C288.204 328.748 286.513 330.552 284.429 330.552C282.346 330.552 280.655 328.748 280.655 326.523Z" fill="url(#paint22_linear_3_364)"/>
<path d="M285.055 17.1764H283.804V324.2H285.055V17.1764Z" fill="url(#paint23_linear_3_364)"/>
<path d="M49.3886 510.248C49.3886 508.024 51.0789 506.22 53.1628 506.22C55.2467 506.22 56.937 508.024 56.937 510.248C56.937 512.473 55.2467 514.277 53.1628 514.277C51.102 514.277 49.3886 512.473 49.3886 510.248Z" fill="url(#paint24_linear_3_364)"/>
<path d="M53.8111 200.901H52.5607V507.925H53.8111V200.901Z" fill="url(#paint25_linear_3_364)"/>
<path d="M352.388 257.695H351.137V564.719H352.388V257.695Z" fill="url(#paint26_linear_3_364)"/>
<path d="M290.936 388.63C290.936 386.406 292.626 384.602 294.71 384.602C296.794 384.602 298.484 386.406 298.484 388.63C298.484 390.854 296.794 392.659 294.71 392.659C292.626 392.659 290.936 390.854 290.936 388.63Z" fill="url(#paint27_linear_3_364)"/>
<path d="M295.358 79.2831H294.108V386.307H295.358V79.2831Z" fill="url(#paint28_linear_3_364)"/>
<path d="M9.15527e-05 428.197C9.15527e-05 425.973 1.69032 424.169 3.77423 424.169C5.85814 424.169 7.54843 425.973 7.54843 428.197C7.54843 430.422 5.85814 432.226 3.77423 432.226C1.69032 432.251 9.15527e-05 430.446 9.15527e-05 428.197Z" fill="url(#paint29_linear_3_364)"/>
<path d="M4.3996 256.014H3.14899V425.874H4.3996V256.014Z" fill="url(#paint30_linear_3_364)"/>
<path d="M65.0642 243.089C65.0642 240.864 66.7545 239.06 68.8384 239.06C70.9223 239.06 72.6126 240.864 72.6126 243.089C72.6126 245.313 70.9223 247.117 68.8384 247.117C66.7545 247.142 65.0642 245.338 65.0642 243.089Z" fill="url(#paint31_linear_3_364)"/>
<path d="M69.4866 117.763H68.2363V240.79H69.4866V117.763Z" fill="url(#paint32_linear_3_364)"/>
<path d="M270.838 460.202C270.838 457.978 272.528 456.174 274.612 456.174C276.696 456.174 278.386 457.978 278.386 460.202C278.386 462.427 276.696 464.231 274.612 464.231C272.528 464.231 270.838 462.427 270.838 460.202Z" fill="url(#paint33_linear_3_364)"/>
<path d="M275.26 287.994H274.01V457.855H275.26V287.994Z" fill="url(#paint34_linear_3_364)"/>
<defs>
<linearGradient id="paint0_linear_3_364" x1="183.546" y1="358.066" x2="183.546" y2="288.068" gradientUnits="userSpaceOnUse">
<stop stop-color="#A4FFFF"/>
<stop offset="1" stop-color="#A4FFFF" stop-opacity="0"/>
</linearGradient>
<linearGradient id="paint1_linear_3_364" x1="183.545" y1="364.218" x2="183.545" y2="315.388" gradientUnits="userSpaceOnUse">
<stop stop-color="#A4FFFF"/>
<stop offset="1" stop-color="#A4FFFF" stop-opacity="0"/>
</linearGradient>
<linearGradient id="paint2_linear_3_364" x1="86.1812" y1="267.943" x2="86.1812" y2="197.924" gradientUnits="userSpaceOnUse">
<stop stop-color="#A4FFFF"/>
<stop offset="1" stop-color="#A4FFFF" stop-opacity="0"/>
</linearGradient>
<linearGradient id="paint3_linear_3_364" x1="86.18" y1="251.561" x2="86.18" y2="125.179" gradientUnits="userSpaceOnUse">
<stop stop-color="#A4FFFF"/>
<stop offset="1" stop-color="#A4FFFF" stop-opacity="0"/>
</linearGradient>
<linearGradient id="paint4_linear_3_364" x1="359.124" y1="292.466" x2="359.124" y2="222.424" gradientUnits="userSpaceOnUse">
<stop stop-color="#A4FFFF"/>
<stop offset="1" stop-color="#A4FFFF" stop-opacity="0"/>
</linearGradient>
<linearGradient id="paint5_linear_3_364" x1="359.123" y1="276.091" x2="359.123" y2="149.705" gradientUnits="userSpaceOnUse">
<stop stop-color="#A4FFFF"/>
<stop offset="1" stop-color="#A4FFFF" stop-opacity="0"/>
</linearGradient>
<linearGradient id="paint6_linear_3_364" x1="43.1558" y1="129.083" x2="43.1558" y2="59.0629" gradientUnits="userSpaceOnUse">
<stop stop-color="#A4FFFF"/>
<stop offset="1" stop-color="#A4FFFF" stop-opacity="0"/>
</linearGradient>
<linearGradient id="paint7_linear_3_364" x1="43.1545" y1="129.083" x2="43.1545" y2="59.0636" gradientUnits="userSpaceOnUse">
<stop stop-color="#A4FFFF"/>
<stop offset="1" stop-color="#A4FFFF" stop-opacity="0"/>
</linearGradient>
<linearGradient id="paint8_linear_3_364" x1="159.995" y1="199.207" x2="159.995" y2="129.166" gradientUnits="userSpaceOnUse">
<stop stop-color="#A4FFFF"/>
<stop offset="1" stop-color="#A4FFFF" stop-opacity="0"/>
</linearGradient>
<linearGradient id="paint9_linear_3_364" x1="159.995" y1="199.213" x2="159.995" y2="129.194" gradientUnits="userSpaceOnUse">
<stop stop-color="#A4FFFF"/>
<stop offset="1" stop-color="#A4FFFF" stop-opacity="0"/>
</linearGradient>
<linearGradient id="paint10_linear_3_364" x1="312.554" y1="169.146" x2="312.554" y2="99.126" gradientUnits="userSpaceOnUse">
<stop stop-color="#A4FFFF"/>
<stop offset="1" stop-color="#A4FFFF" stop-opacity="0"/>
</linearGradient>
<linearGradient id="paint11_linear_3_364" x1="312.556" y1="169.144" x2="312.556" y2="99.1262" gradientUnits="userSpaceOnUse">
<stop stop-color="#A4FFFF"/>
<stop offset="1" stop-color="#A4FFFF" stop-opacity="0"/>
</linearGradient>
<linearGradient id="paint12_linear_3_364" x1="279.488" y1="206.234" x2="279.488" y2="136.214" gradientUnits="userSpaceOnUse">
<stop stop-color="#A4FFFF"/>
<stop offset="1" stop-color="#A4FFFF" stop-opacity="0"/>
</linearGradient>
<linearGradient id="paint13_linear_3_364" x1="279.487" y1="206.234" x2="279.487" y2="136.215" gradientUnits="userSpaceOnUse">
<stop stop-color="#A4FFFF"/>
<stop offset="1" stop-color="#A4FFFF" stop-opacity="0"/>
</linearGradient>
<linearGradient id="paint14_linear_3_364" x1="148.92" y1="256.788" x2="148.92" y2="132.089" gradientUnits="userSpaceOnUse">
<stop stop-color="#A4FFFF"/>
<stop offset="1" stop-color="#A4FFFF" stop-opacity="0"/>
</linearGradient>
<linearGradient id="paint15_linear_3_364" x1="148.921" y1="256.79" x2="148.921" y2="132.092" gradientUnits="userSpaceOnUse">
<stop stop-color="#A4FFFF"/>
<stop offset="1" stop-color="#A4FFFF" stop-opacity="0"/>
</linearGradient>
<linearGradient id="paint16_linear_3_364" x1="170.894" y1="226.18" x2="170.894" y2="101.481" gradientUnits="userSpaceOnUse">
<stop stop-color="#A4FFFF"/>
<stop offset="1" stop-color="#A4FFFF" stop-opacity="0"/>
</linearGradient>
<linearGradient id="paint17_linear_3_364" x1="170.895" y1="233.675" x2="170.895" y2="134.127" gradientUnits="userSpaceOnUse">
<stop stop-color="#A4FFFF"/>
<stop offset="1" stop-color="#A4FFFF" stop-opacity="0"/>
</linearGradient>
<linearGradient id="paint18_linear_3_364" x1="117.042" y1="403.166" x2="117.042" y2="278.467" gradientUnits="userSpaceOnUse">
<stop stop-color="#A4FFFF"/>
<stop offset="1" stop-color="#A4FFFF" stop-opacity="0"/>
</linearGradient>
<linearGradient id="paint19_linear_3_364" x1="117.042" y1="371.961" x2="117.042" y2="142.573" gradientUnits="userSpaceOnUse">
<stop stop-color="#A4FFFF"/>
<stop offset="1" stop-color="#A4FFFF" stop-opacity="0"/>
</linearGradient>
<linearGradient id="paint20_linear_3_364" x1="227.133" y1="269.841" x2="227.133" y2="145.104" gradientUnits="userSpaceOnUse">
<stop stop-color="#A4FFFF"/>
<stop offset="1" stop-color="#A4FFFF" stop-opacity="0"/>
</linearGradient>
<linearGradient id="paint21_linear_3_364" x1="227.133" y1="238.647" x2="227.133" y2="9.25916" gradientUnits="userSpaceOnUse">
<stop stop-color="#A4FFFF"/>
<stop offset="1" stop-color="#A4FFFF" stop-opacity="0"/>
</linearGradient>
<linearGradient id="paint22_linear_3_364" x1="284.432" y1="287.022" x2="284.432" y2="162.289" gradientUnits="userSpaceOnUse">
<stop stop-color="#A4FFFF"/>
<stop offset="1" stop-color="#A4FFFF" stop-opacity="0"/>
</linearGradient>
<linearGradient id="paint23_linear_3_364" x1="284.432" y1="255.831" x2="284.432" y2="26.441" gradientUnits="userSpaceOnUse">
<stop stop-color="#A4FFFF"/>
<stop offset="1" stop-color="#A4FFFF" stop-opacity="0"/>
</linearGradient>
<linearGradient id="paint24_linear_3_364" x1="53.1795" y1="470.758" x2="53.1795" y2="346.06" gradientUnits="userSpaceOnUse">
<stop stop-color="#A4FFFF"/>
<stop offset="1" stop-color="#A4FFFF" stop-opacity="0"/>
</linearGradient>
<linearGradient id="paint25_linear_3_364" x1="53.1794" y1="439.554" x2="53.1794" y2="210.168" gradientUnits="userSpaceOnUse">
<stop stop-color="#A4FFFF"/>
<stop offset="1" stop-color="#A4FFFF" stop-opacity="0"/>
</linearGradient>
<linearGradient id="paint26_linear_3_364" x1="351.765" y1="496.345" x2="351.765" y2="266.956" gradientUnits="userSpaceOnUse">
<stop stop-color="#A4FFFF"/>
<stop offset="1" stop-color="#A4FFFF" stop-opacity="0"/>
</linearGradient>
<linearGradient id="paint27_linear_3_364" x1="294.721" y1="349.146" x2="294.721" y2="224.485" gradientUnits="userSpaceOnUse">
<stop stop-color="#A4FFFF"/>
<stop offset="1" stop-color="#A4FFFF" stop-opacity="0"/>
</linearGradient>
<linearGradient id="paint28_linear_3_364" x1="294.721" y1="317.93" x2="294.721" y2="88.5425" gradientUnits="userSpaceOnUse">
<stop stop-color="#A4FFFF"/>
<stop offset="1" stop-color="#A4FFFF" stop-opacity="0"/>
</linearGradient>
<linearGradient id="paint29_linear_3_364" x1="3.77727" y1="388.719" x2="3.77727" y2="264.021" gradientUnits="userSpaceOnUse">
<stop stop-color="#A4FFFF"/>
<stop offset="1" stop-color="#A4FFFF" stop-opacity="0"/>
</linearGradient>
<linearGradient id="paint30_linear_3_364" x1="3.77823" y1="388.058" x2="3.77823" y2="261.146" gradientUnits="userSpaceOnUse">
<stop stop-color="#A4FFFF"/>
<stop offset="1" stop-color="#A4FFFF" stop-opacity="0"/>
</linearGradient>
<linearGradient id="paint31_linear_3_364" x1="68.8539" y1="203.61" x2="68.8539" y2="78.9114" gradientUnits="userSpaceOnUse">
<stop stop-color="#A4FFFF"/>
<stop offset="1" stop-color="#A4FFFF" stop-opacity="0"/>
</linearGradient>
<linearGradient id="paint32_linear_3_364" x1="68.855" y1="213.385" x2="68.855" y2="121.474" gradientUnits="userSpaceOnUse">
<stop stop-color="#A4FFFF"/>
<stop offset="1" stop-color="#A4FFFF" stop-opacity="0"/>
</linearGradient>
<linearGradient id="paint33_linear_3_364" x1="274.629" y1="420.716" x2="274.629" y2="296.056" gradientUnits="userSpaceOnUse">
<stop stop-color="#A4FFFF"/>
<stop offset="1" stop-color="#A4FFFF" stop-opacity="0"/>
</linearGradient>
<linearGradient id="paint34_linear_3_364" x1="274.628" y1="420.044" x2="274.628" y2="293.129" gradientUnits="userSpaceOnUse">
<stop stop-color="#A4FFFF"/>
<stop offset="1" stop-color="#A4FFFF" stop-opacity="0"/>
</linearGradient>
</defs>
</svg>
